<svg width="171" height="51" viewBox="0 0 171 51" fill="none" xmlns="http://www.w3.org/2000/svg">
<path d="M158.317 20.9631V17.2876H157.179V16.4742H160.372V17.2876H159.251V20.9631H158.317ZM160.835 20.9631V16.4742H161.738L163.42 18.7036H162.998L164.631 16.4742H165.534V20.9631H164.6V17.5045L164.974 17.5889L163.245 19.8183H163.124L161.455 17.5889L161.769 17.5045V20.9631H160.835Z" fill="white"/>
<g clip-path="url(#clip0_114_638)">
<path fill-rule="evenodd" clip-rule="evenodd" d="M37.0739 15.418C37.5255 15.3437 37.9869 15.489 38.3158 15.8086C42.1397 19.5268 44.2456 24.5032 44.2456 29.821C44.2456 40.6047 35.4729 49.378 24.6896 49.378C15.7697 49.378 7.98844 43.339 5.7669 34.6924C5.34593 33.0519 5.13251 31.4131 5.13251 29.821C5.13251 26.6958 5.86257 23.6915 7.30245 20.8919C8.71946 18.1396 10.8031 15.7295 13.3283 13.9215C13.343 13.911 13.3579 13.9008 13.373 13.8908C13.466 13.8294 13.5654 13.7567 13.6707 13.6796L13.6815 13.6717C13.6922 13.6639 13.7029 13.6561 13.7136 13.6482C13.7557 13.6174 13.7978 13.5866 13.8401 13.5561C17.8553 10.6829 20.377 6.22884 20.7626 1.33308C20.8006 0.849904 21.0781 0.417941 21.5018 0.182334C21.9254 -0.0531764 22.4385 -0.0609882 22.8691 0.161503C27.8151 2.71788 31.4461 7.27389 32.8309 12.6612C33.252 14.3014 33.4654 15.9402 33.4654 17.5328C33.4654 18.3628 33.4113 19.1905 33.3038 20.0134C34.3824 18.8743 35.2992 17.5857 36.021 16.1836C36.2308 15.776 36.6215 15.492 37.0739 15.418ZM23.9409 35.9114C27.2465 35.9114 29.9262 33.2317 29.9262 29.9261C29.9262 26.6206 27.2465 23.9409 23.9409 23.9409C20.6354 23.9409 17.9557 26.6206 17.9557 29.9261C17.9557 33.2317 20.6354 35.9114 23.9409 35.9114Z" fill="#6359E9"/>
</g>
<path d="M67.7711 40.9219C69.2781 40.9219 70.6112 40.6466 71.7705 40.096C72.9297 39.5163 73.8137 38.6469 74.4223 37.4876V40.4003H80.5083V16.6647H73.9875V30.5322C73.9875 31.8943 73.5818 32.9956 72.7703 33.836C71.9589 34.6475 70.9156 35.0532 69.6404 35.0532C68.3652 35.0532 67.3219 34.6475 66.5104 33.836C65.6989 32.9956 65.2932 31.8943 65.2932 30.5322V16.6647H58.7725V31.0538C58.7725 34.0099 59.5405 36.4009 61.0765 38.2267C62.6414 40.0235 64.873 40.9219 67.7711 40.9219Z" fill="white"/>
<path d="M85.2742 14.5346H91.795V8.01385H85.2742V14.5346ZM85.2742 40.4003H91.795V16.6647H85.2742V40.4003Z" fill="white"/>
<path d="M99.4358 40.4003H105.957V22.316H111.043V16.6647H105.957V16.3169C105.957 14.2013 107.188 13.1435 109.652 13.1435C110.057 13.1435 110.536 13.187 111.086 13.2739V7.70955C110.42 7.56464 109.652 7.49219 108.782 7.49219C105.826 7.49219 103.522 8.26019 101.87 9.79619C100.247 11.3322 99.4358 13.5058 99.4358 16.3169V16.6647H95.4364V22.316H99.4358V40.4003Z" fill="white"/>
<path d="M114.397 40.4003H120.918V27.6196C120.918 25.8517 121.41 24.4896 122.396 23.5332C123.381 22.5479 124.671 22.0552 126.265 22.0552H128.308V16.4039H126.917C125.468 16.4039 124.178 16.6792 123.048 17.2298C121.946 17.7515 121.091 18.7514 120.483 20.2294V16.6647H114.397V40.4003Z" fill="white"/>
<path d="M134.861 50.051C139.208 50.051 142.352 47.5731 144.294 42.6173L154.467 16.6647H147.468L141.86 31.9233L136.252 16.6647H129.253L138.599 40.4003L138.165 41.4001C137.817 42.1826 137.368 42.8781 136.817 43.4867C136.266 44.0953 135.353 44.3996 134.078 44.3996C133.035 44.3996 132.05 44.2547 131.122 43.9649V49.3119C131.615 49.5728 132.18 49.7612 132.818 49.8771C133.484 49.993 134.165 50.051 134.861 50.051Z" fill="white"/>
<defs>
<clipPath id="clip0_114_638">
<rect width="49.3782" height="49.3782" fill="white"/>
</clipPath>
</defs>
</svg>
